<svg width="500" height="23" viewBox="0 0 500 23" fill="none" xmlns="http://www.w3.org/2000/svg">
<rect x="0.396484" y="0.0195312" width="17.8098" height="22.2623" fill="white"/>
<rect x="214.114" y="0.0195312" width="17.8098" height="22.2623" fill="white"/>
<rect x="107.255" y="0.0195312" width="17.8098" height="22.2623" fill="white"/>
<rect x="320.973" y="0.0195312" width="17.8098" height="22.2623" fill="white"/>
<rect x="427.832" y="0.0195312" width="17.8098" height="22.2623" fill="white"/>
<rect x="27.1113" y="0.0195312" width="17.8098" height="22.2623" fill="white"/>
<rect x="240.829" y="0.0195312" width="17.8098" height="22.2623" fill="white"/>
<rect x="133.97" y="0.0195312" width="17.8098" height="22.2623" fill="white"/>
<rect x="347.688" y="0.0195312" width="17.8098" height="22.2623" fill="white"/>
<rect x="454.547" y="0.0195312" width="17.8098" height="22.2623" fill="white"/>
<rect x="53.8259" y="0.0195312" width="17.8098" height="22.2623" fill="white"/>
<rect x="267.543" y="0.0195312" width="17.8098" height="22.2623" fill="white"/>
<rect x="160.685" y="0.0195312" width="17.8098" height="22.2623" fill="white"/>
<rect x="374.403" y="0.0195312" width="17.8098" height="22.2623" fill="white"/>
<rect x="481.261" y="0.0195312" width="17.8098" height="22.2623" fill="white"/>
<rect x="80.5408" y="0.0195312" width="17.8098" height="22.2623" fill="white"/>
<rect x="294.258" y="0.0195312" width="17.8098" height="22.2623" fill="white"/>
<rect x="187.399" y="0.0195312" width="17.8098" height="22.2623" fill="white"/>
<rect x="401.117" y="0.0195312" width="17.8098" height="22.2623" fill="white"/>
</svg>
