<svg width="305" height="294" viewBox="0 0 305 294" fill="none" xmlns="http://www.w3.org/2000/svg">
<path d="M251.738 0.666049L37.9573 57.9485L59.3713 137.867C59.3713 137.867 56.2881 146.706 52.2922 147.777C48.2963 148.848 47.6841 147.932 42.6396 145.019C40.1063 143.557 35.4309 136.43 22.1111 139.999C8.79153 143.568 5.24819 151.655 3.47643 155.699L3.47635 155.699C1.70462 159.742 -1.00755 168.668 0.968723 175.643C2.87704 182.379 5.11249 187.31 10.9236 191.214C18.121 196.05 22.567 195.332 31.2377 195.371C39.0988 195.406 42.2473 191.983 46.5075 188.424C52.8061 183.163 51.8142 172.136 57.8081 170.53C63.8019 168.924 70.6136 179.824 70.6136 179.824L90.4216 253.748L184.325 228.586C184.325 228.586 193.894 232.177 196.683 237.41C201.249 245.977 189.106 251.258 188.717 260.958C188.306 271.182 188.271 279.022 195.498 286.266C204.187 294.976 215.004 294.635 226.681 290.758C236.966 287.344 244.512 282.78 247.444 272.347C250.213 262.496 245.954 255.797 240.663 247.039C235.792 238.976 223.076 239.689 223.322 230.272C223.523 222.573 235.606 214.846 235.606 214.846L304.202 196.465L251.738 0.666049Z" fill="#CA2F2F"/>
</svg>
