<svg width="274" height="260" viewBox="0 0 274 260" fill="none" xmlns="http://www.w3.org/2000/svg">
<path d="M85.8886 36.724L0.642678 59.5656L54.1776 259.361L273.952 200.472L253.252 123.218C253.252 123.218 244.894 116.247 238.588 116.44C229.561 116.718 227.245 128.538 221.285 131.784C213.008 136.291 207.012 140.704 197.976 138.029C189.424 135.498 185.095 129.987 182.145 121.571C178.717 111.793 179.353 102.857 186.555 95.4065C193.104 88.6306 200.44 89.1802 209.864 89.1608C219.149 89.1417 226.612 101.981 232.877 95.129C236.372 91.3065 235.015 87.3148 235.838 82.2012C240.969 50.3004 214.424 2.28315 214.424 2.28315L149.823 19.5928C149.823 19.5928 135.389 23.4723 134.292 30.8923C133.18 38.412 141.974 39.9651 146.258 46.245C150.822 52.9367 156.097 56.058 156.76 64.1309C157.453 72.5573 154.719 78.3703 148.568 84.171C141.516 90.8215 134.064 92.6574 124.593 90.5952C116.169 88.7613 110.551 85.2818 106.812 77.5146C103.298 70.2163 103.956 66.8589 106.964 56.7735C109.973 46.6881 114.449 43.8262 110.317 37.3165C105.203 29.26 85.8886 36.724 85.8886 36.724Z" fill="#FFD159"/>
</svg>
