<svg width="271" height="288" viewBox="0 0 271 288" fill="none" xmlns="http://www.w3.org/2000/svg">
<path d="M0 59.1002L52.8212 256.231L152.298 229.577C152.298 229.577 163.601 230.117 163.387 237.312C163.174 244.508 158.608 251.441 157.502 255.307C156.396 259.172 155.756 262.909 156.54 267.699C157.376 272.81 161.928 279.818 161.928 279.818C161.928 279.818 174.821 290.639 190.805 286.356C206.788 282.073 209.213 267.148 209.213 267.148C209.213 267.148 210.758 259.595 206.798 252.805C202.837 246.015 201.326 245.705 198.079 241.579C194.832 237.452 187.411 233.731 186.34 229.735C185.269 225.739 196.008 217.865 196.008 217.865L270.598 197.878L250.255 121.956C250.255 121.956 243.782 114.255 238.076 113.799C228.306 113.017 231.024 128.47 222.688 133.625C215.818 137.874 210.74 139.846 202.709 138.979C195.304 138.18 190.569 136.204 185.511 130.739C179.11 123.822 177.719 116.726 179.265 107.429C180.577 99.5411 183.169 94.5774 189.503 89.6961C195.901 84.7653 201.407 84.1569 209.483 84.3426C219.121 84.5643 224.685 98.738 232.544 93.1532C238.083 89.2166 238.12 76.6693 238.12 76.6693L217.777 0.747109L144.519 20.3766C144.519 20.3766 137.2 25.9037 137.336 30.8667C137.502 36.9152 144.806 36.763 148.719 41.379C153.621 47.1634 157.307 50.5122 158.865 57.933C160.645 66.4189 159.586 72.5712 154.716 79.7448C146.7 91.5514 131.963 96.0068 119.419 89.2026C111.99 85.1735 108.98 80.0286 106.252 72.0305C103.847 64.982 104.205 60.3241 105.43 52.9782C106.449 46.8639 113.41 43.5784 110.697 38.0047C108.856 34.2229 101.896 31.7974 101.896 31.7974L0 59.1002Z" fill="#FB4853"/>
</svg>
