<svg width="312" height="258" viewBox="0 0 312 258" fill="none" xmlns="http://www.w3.org/2000/svg">
<path d="M65.3652 141.776L43.0589 58.5277L141.625 32.1171C141.625 32.1171 152.942 32.9827 156.777 38.0503C162.684 45.8575 149.77 52.297 149.655 62.0864C149.541 71.779 149.626 78.8288 156.079 86.0618C163.489 94.3677 172.465 96.9558 183.314 94.4677C194.838 91.825 202.298 84.6122 204.696 73.035C206.661 63.5431 203.435 57.2633 198.272 49.0595C192.82 40.397 176.811 42.4953 178.088 32.3399C178.964 25.3734 190.241 19.0903 190.241 19.0903L258.172 0.888378L311.528 200.018L96.4155 257.657L74.4661 175.741C74.4661 175.741 68.4289 172.022 64.3807 172.733C59.6367 173.566 58.5084 177.461 55.1526 180.916C48.619 187.643 49.6587 196.56 41.0969 200.386C31.6365 204.613 23.6397 201.593 14.9323 195.976C8.65787 191.928 5.0434 188.48 2.47922 181.468C-0.680918 172.825 0.641442 166.243 4.76063 158.015C9.39904 148.749 14.978 142.719 25.2149 141.113C33.5633 139.803 46.0516 146.951 46.0516 146.951C46.0516 146.951 53.8159 154.003 58.8488 152.087C63.3008 150.393 65.3652 141.776 65.3652 141.776Z" fill="#FFB17B"/>
</svg>
