<svg width="234" height="252" viewBox="0 0 234 252" fill="none" xmlns="http://www.w3.org/2000/svg">
<path d="M12.156 189.904C6.45076 204.167 0.745361 216.718 0.745361 216.718L75.4833 251.52C75.4833 251.52 127.401 186.481 150.221 171.647C173.042 156.814 226.671 124.294 226.671 124.294C226.671 124.294 235.799 117.448 232.947 112.313C230.094 107.179 219.825 110.602 219.825 110.602C219.825 110.602 154.786 144.262 150.221 138.557C145.657 132.852 226.671 71.2361 226.671 71.2361C226.671 71.2361 230.665 64.3898 226.671 59.2552C222.677 54.1205 214.69 59.2552 214.69 59.2552C214.69 59.2552 139.381 112.883 135.388 108.89C131.394 104.897 193.01 34.7228 193.01 34.7228C193.01 34.7228 196.637 24.9596 193.01 21.0304C189.081 16.7738 178.177 21.0304 178.177 21.0304C178.177 21.0304 109.714 95.1976 105.15 90.6334C100.586 86.0693 150.221 15.8957 150.221 15.8957C150.221 15.8957 157.638 5.05597 150.221 1.06197C142.805 -2.93203 135.388 5.62637 135.388 5.62637C135.388 5.62637 115.99 28.4471 109.144 37.5754C102.298 46.7037 89.688 64.7126 75.4833 82.0759C60.9176 99.8806 34.406 124.294 34.406 124.294C34.406 124.294 35.547 100.903 34.406 95.1979C33.2649 89.4927 29.2713 79.2233 22.4251 71.2361C15.5789 63.2488 0.745361 64.3898 0.745361 64.3898C0.745361 64.3898 6.99544 108.89 2.45713 128.858C-2.08118 148.826 17.8611 175.641 12.156 189.904Z" fill="#ECA97B"/>
</svg>
