<svg width="194" height="262" viewBox="0 0 194 262" fill="none" xmlns="http://www.w3.org/2000/svg">
<path d="M92.7303 235.638C98.4902 249.078 103.098 261.366 103.098 261.366L176.825 234.487C176.825 234.487 167.993 155.768 173.369 130.424C178.745 105.081 192.953 47.0977 192.953 47.0977C192.953 47.0977 194.488 36.3455 189.113 34.8097C183.737 33.2739 179.129 42.4898 179.129 42.4898C179.129 42.4898 158.009 108.92 151.097 108.153C144.185 107.385 157.241 11.3863 157.241 11.3863C157.241 11.3863 155.321 4.09038 149.177 3.32239C143.034 2.5544 141.114 11.3863 141.114 11.3863C141.114 11.3863 126.521 98.1686 121.146 98.1688C115.77 98.1689 110.01 9.4663 110.01 9.4663C110.01 9.4663 105.88 0.453865 100.794 0.250442C95.2847 0.030052 90.8104 10.2343 90.8104 10.2343C90.8104 10.2343 94.6501 106.233 88.5062 106.233C82.3623 106.233 68.5387 25.594 68.5387 25.594C68.5387 25.594 66.2348 13.3063 58.5547 15.61C50.8746 17.9138 51.6429 28.666 51.6429 28.666C51.6429 28.666 53.9469 57.0816 55.4829 67.8334C57.0189 78.5852 60.6528 99.1935 62.7788 120.441C64.9588 142.228 63.5468 176.504 63.5468 176.504C63.5468 176.504 48.571 159.992 43.9631 156.92C39.3551 153.848 29.7553 149.624 19.7714 148.856C9.78759 148.088 0.571735 158.84 0.571735 158.84C0.571735 158.84 34.7298 184.585 45.115 201.079C55.5002 217.573 86.9703 222.199 92.7303 235.638Z" fill="#B58361"/>
</svg>
