<svg width="875" height="166" viewBox="0 0 875 166" fill="none" xmlns="http://www.w3.org/2000/svg">
<path d="M445.293 43.4497C309.478 43.4497 197.042 0 197.042 0C197.042 0 209.446 47.0061 197.042 72.4161C167.453 133.028 52.2891 110.536 0 104.725C0 104.725 37.7431 143.205 61.2277 153.745C85.8154 164.78 129.135 166 129.135 166H748.092C748.092 166 772.583 166 809.319 149.289C846.056 132.577 875 104.725 875 104.725C875 104.725 833.81 113.638 798.187 113.638C745.13 113.638 714.2 122.789 683.524 72.4161C668.707 48.0849 674.618 0 674.618 0C674.618 0 581.107 43.4497 445.293 43.4497Z" fill="#442828"/>
</svg>
