<svg width="240" height="222" viewBox="0 0 240 222" fill="none" xmlns="http://www.w3.org/2000/svg">
<path d="M181.294 210.686C194.87 216.116 206.817 221.547 206.817 221.547L239.943 150.407C239.943 150.407 178.035 100.99 163.916 79.2677C149.797 57.5458 118.843 6.4991 118.843 6.4991C118.843 6.4991 112.326 -2.1897 107.439 0.525558C102.552 3.2408 105.81 13.0157 105.81 13.0157C105.81 13.0157 137.849 74.9234 132.419 79.2677C126.989 83.6122 68.3395 6.4991 68.3395 6.4991C68.3395 6.4991 61.8229 2.69775 56.9355 6.4991C52.048 10.3004 56.9355 17.9031 56.9355 17.9031C56.9355 17.9031 107.982 89.5857 104.181 93.3871C100.379 97.1884 33.5843 38.539 33.5843 38.539C33.5843 38.539 24.2911 35.0867 20.5511 38.539C16.4995 42.279 20.5511 52.6583 20.5511 52.6583C20.5511 52.6583 91.1473 117.824 86.8029 122.169C82.4585 126.513 15.6637 79.2677 15.6637 79.2677C15.6637 79.2677 5.34586 72.2081 1.54416 79.2677C-2.25753 86.3274 5.8888 93.3871 5.8888 93.3871C5.8888 93.3871 27.6108 111.851 36.2996 118.367C44.9884 124.884 62.1301 136.887 78.6574 150.407C95.6049 164.272 118.843 189.507 118.843 189.507C118.843 189.507 96.5781 188.421 91.1476 189.507C85.7171 190.593 75.9422 194.394 68.3395 200.911C60.7368 207.427 61.8229 221.547 61.8229 221.547C61.8229 221.547 104.181 215.598 123.187 219.917C142.194 224.237 167.717 205.255 181.294 210.686Z" fill="#FEC49C"/>
</svg>
